<svg xmlns="http://www.w3.org/2000/svg" viewBox="0 0 512 512" width="512" height="512">
  <defs>
    <linearGradient id="grad1" x1="0%" y1="0%" x2="100%" y2="100%">
      <stop offset="0%" style="stop-color:#059669;stop-opacity:1" />
      <stop offset="100%" style="stop-color:#0d9488;stop-opacity:1" />
    </linearGradient>
    <filter id="shadow" x="-20%" y="-20%" width="140%" height="140%">
      <feDropShadow dx="0" dy="12" stdDeviation="16" flood-color="#000000" flood-opacity="0.4"/>
    </filter>
  </defs>
  <rect width="512" height="512" rx="128" fill="#090d16"/>
  <rect x="24" y="24" width="464" height="464" rx="108" fill="url(#grad1)" filter="url(#shadow)"/>
  <path d="M256 120 C180 120 120 172 120 236 C120 274 146 307 186 328 L170 384 L228 354 C237 356 246 357 256 357 C332 357 392 305 392 236 C392 172 332 120 256 120 Z" fill="#ffffff" opacity="0.95"/>
  <path d="M256 170 L296 186 V232 C296 262 278 288 256 298 C234 288 216 262 216 232 V186 L256 170 Z" fill="#047857"/>
  <path d="M246 234 L236 224 L244 216 L250 222 L268 204 L276 212 L246 234 Z" fill="#ffffff"/>
</svg>
